<?xml version="1.0" encoding="UTF-8" standalone="no"?>
<!-- Generator: Adobe Illustrator 19.0.0, SVG Export Plug-In . SVG Version: 6.00 Build 0)  -->

<svg
   xmlns:dc="http://purl.org/dc/elements/1.1/"
   xmlns:cc="http://creativecommons.org/ns#"
   xmlns:rdf="http://www.w3.org/1999/02/22-rdf-syntax-ns#"
   xmlns:svg="http://www.w3.org/2000/svg"
   xmlns="http://www.w3.org/2000/svg"
   xmlns:sodipodi="http://sodipodi.sourceforge.net/DTD/sodipodi-0.dtd"
   xmlns:inkscape="http://www.inkscape.org/namespaces/inkscape"
   version="1.1"
   id="Layer_1"
   x="0px"
   y="0px"
   viewBox="0 0 366.156 366.156"
   style="enable-background:new 0 0 366.156 366.156;"
   xml:space="preserve"
   sodipodi:docname="monoport.svg"
   inkscape:version="0.92.3 (2405546, 2018-03-11)"><metadata
   id="metadata59"><rdf:RDF><cc:Work
       rdf:about=""><dc:format>image/svg+xml</dc:format><dc:type
         rdf:resource="http://purl.org/dc/dcmitype/StillImage" /><dc:title></dc:title></cc:Work></rdf:RDF></metadata><defs
   id="defs57">
	
	
	
	
	
	

		
		
	
		
		
	
		
		
	
		
		
	
		
		
	
		
		
	
			
		</defs><sodipodi:namedview
   pagecolor="#ffffff"
   bordercolor="#666666"
   borderopacity="1"
   objecttolerance="10"
   gridtolerance="10"
   guidetolerance="10"
   inkscape:pageopacity="0"
   inkscape:pageshadow="2"
   inkscape:window-width="716"
   inkscape:window-height="480"
   id="namedview55"
   showgrid="false"
   inkscape:zoom="0.45575437"
   inkscape:cx="182.16519"
   inkscape:cy="57.753751"
   inkscape:window-x="2102"
   inkscape:window-y="185"
   inkscape:window-maximized="0"
   inkscape:current-layer="Layer_1" />
<path
   inkscape:connector-curvature="0"
   d="M 183.079,348.133 V 313.82 c 50.054,0 90.776,-40.722 90.776,-90.776 h 34.313 c 0,68.975 -56.114,125.089 -125.089,125.089 z"
   style="fill:#b3b3b3;stroke:none"
   id="path903" /><path
   id="XMLID_51_"
   style="fill:#ffffff;stroke:none"
   d="M 183.079,348.133 V 313.82 c -50.054,0 -90.776,-40.722 -90.776,-90.776 H 57.99 c 0,68.975 56.114,125.089 125.089,125.089 z"
   inkscape:connector-curvature="0" /><path
   id="XMLID_49_"
   style="fill:#b3b3b3;stroke:none"
   d="m 250.405,217.86 48.156,-35.349 c 7.748,-5.688 18.791,-1.781 21.24,7.513 l 15.219,57.766 c 2.788,10.582 -7.405,19.967 -17.721,16.318 l -63.375,-22.417 c -10.316,-3.649 -12.34,-17.356 -3.519,-23.831 z"
   inkscape:connector-curvature="0" /><path
   id="XMLID_48_"
   style="fill:#ffffff;stroke:none"
   d="M 115.752,217.86 67.596,182.511 c -7.748,-5.688 -18.791,-1.781 -21.24,7.513 L 31.137,247.79 c -2.788,10.582 7.405,19.967 17.721,16.318 l 63.375,-22.417 c 10.317,-3.649 12.341,-17.356 3.519,-23.831 z"
   inkscape:connector-curvature="0" /><path
   id="XMLID_901_"
   style="fill:#b3b3b3;stroke:none"
   d="m 198.285,330.111 h -15.206 v 36.045 c 2.491,0 4.983,-1.067 6.711,-3.2 l 15.206,-18.769 c 4.575,-5.648 0.556,-14.076 -6.711,-14.076 z"
   inkscape:connector-curvature="0" /><g
   id="XMLID_903_"
   style="fill:#ffffff;stroke:#000000">
			
		</g><path
   id="XMLID_907_"
   style="fill:#b3b3b3;stroke:none"
   d="m 183.079,0 v 32.807 c 19.221,0 34.858,15.637 34.858,34.858 0,19.221 -15.637,34.858 -34.858,34.858 v 32.807 c 37.311,0 67.665,-30.354 67.665,-67.665 C 250.744,30.354 220.389,0 183.079,0 Z"
   inkscape:connector-curvature="0" /><rect
   id="XMLID_911_"
   x="183.07899"
   y="102.522"
   style="fill:#b3b3b3;stroke:none"
   width="16.403999"
   height="227.589" /><rect
   id="XMLID_913_"
   x="183.07899"
   y="132.254"
   style="fill:#b3b3b3;stroke:none"
   width="51.383999"
   height="37.932999" />
<g
   id="g24">
</g>
<g
   id="g26">
</g>
<g
   id="g28">
</g>
<g
   id="g30">
</g>
<g
   id="g32">
</g>
<g
   id="g34">
</g>
<g
   id="g36">
</g>
<g
   id="g38">
</g>
<g
   id="g40">
</g>
<g
   id="g42">
</g>
<g
   id="g44">
</g>
<g
   id="g46">
</g>
<g
   id="g48">
</g>
<g
   id="g50">
</g>
<g
   id="g52">
</g>
<rect
   height="37.932999"
   width="51.383999"
   style="fill:#ffffff;stroke:none"
   y="132.254"
   x="131.69499"
   id="rect905" /><path
   inkscape:connector-curvature="0"
   d="m 167.87298,330.111 h 15.206 v 36.045 c -2.491,0 -4.983,-1.067 -6.711,-3.2 l -15.206,-18.769 c -4.575,-5.648 -0.556,-14.076 6.711,-14.076 z"
   style="fill:#ffffff;stroke:none"
   id="path907" /><path
   inkscape:connector-curvature="0"
   d="m 183.07898,0 v 32.807 c -19.221,0 -34.858,15.637 -34.858,34.858 0,19.221 15.637,34.858 34.858,34.858 v 32.807 c -37.311,0 -67.665,-30.354 -67.665,-67.665 0,-37.311 30.355,-67.665 67.665,-67.665 z"
   style="fill:#ffffff;stroke:none"
   id="path909" /><rect
   height="227.589"
   width="16.403999"
   style="fill:#ffffff;stroke:none"
   y="102.522"
   x="-183.07899"
   id="rect911"
   transform="scale(-1,1)" /></svg>