<?xml version="1.0" encoding="UTF-8" standalone="no"?>
<!-- Generator: Adobe Illustrator 19.0.0, SVG Export Plug-In . SVG Version: 6.00 Build 0)  -->

<svg
   xmlns:dc="http://purl.org/dc/elements/1.1/"
   xmlns:cc="http://creativecommons.org/ns#"
   xmlns:rdf="http://www.w3.org/1999/02/22-rdf-syntax-ns#"
   xmlns:svg="http://www.w3.org/2000/svg"
   xmlns="http://www.w3.org/2000/svg"
   xmlns:sodipodi="http://sodipodi.sourceforge.net/DTD/sodipodi-0.dtd"
   xmlns:inkscape="http://www.inkscape.org/namespaces/inkscape"
   version="1.1"
   id="Layer_1"
   x="0px"
   y="0px"
   viewBox="0 0 366.156 366.156"
   style="enable-background:new 0 0 366.156 366.156;"
   xml:space="preserve"
   sodipodi:docname="monoport.svg"
   inkscape:version="0.92.3 (2405546, 2018-03-11)"><metadata
   id="metadata59"><rdf:RDF><cc:Work
       rdf:about=""><dc:format>image/svg+xml</dc:format><dc:type
         rdf:resource="http://purl.org/dc/dcmitype/StillImage" /><dc:title></dc:title></cc:Work></rdf:RDF></metadata><defs
   id="defs57">
	
	
	
	
	
	

		
		
	
		
		
	
		
		
	
		
		
	
		
		
	
		
		
	
			
		</defs><sodipodi:namedview
   pagecolor="#ffffff"
   bordercolor="#666666"
   borderopacity="1"
   objecttolerance="10"
   gridtolerance="10"
   guidetolerance="10"
   inkscape:pageopacity="0"
   inkscape:pageshadow="2"
   inkscape:window-width="1920"
   inkscape:window-height="1017"
   id="namedview55"
   showgrid="false"
   inkscape:zoom="0.64453401"
   inkscape:cx="188.29373"
   inkscape:cy="170.73173"
   inkscape:window-x="1912"
   inkscape:window-y="-8"
   inkscape:window-maximized="1"
   inkscape:current-layer="Layer_1" />
<path
   style="fill:#b3b3b3;stroke:none;opacity:0.56418919"
   d="M 183.07812 0 L 183.07812 32.806641 C 202.29913 32.806641 217.9375 48.443063 217.9375 67.664062 C 217.9375 86.858862 202.34127 102.47893 183.15625 102.52148 L 183.07812 102.52148 L 183.07812 102.52344 L 183.07812 132.25391 L 183.07812 135.33008 L 183.07812 170.1875 L 183.07812 313.82031 L 183.07812 348.13281 L 183.07812 366.15625 C 185.56913 366.15625 188.06106 365.08808 189.78906 362.95508 L 203.10352 346.52344 C 250.63111 338.84356 289.27151 304.29494 302.89062 259.01172 L 317.29883 264.10742 C 327.61483 267.75642 337.80753 258.37106 335.01953 247.78906 L 319.80078 190.02344 C 317.35178 180.72944 306.30855 176.82372 298.56055 182.51172 L 250.4043 217.85938 C 241.5833 224.33437 243.60783 238.04241 253.92383 241.69141 L 270.49219 247.55078 C 261.2164 280.59337 233.66543 306.06741 199.48242 312.33203 L 199.48242 170.1875 L 234.46289 170.1875 L 234.46289 132.25391 L 203.26367 132.25391 C 230.7461 123.64675 250.74414 97.94735 250.74414 67.664062 C 250.74414 30.353063 220.38812 9.4739031e-015 183.07812 0 z "
   id="path903" /><path
   id="XMLID_51_"
   style="fill:#ffffff;stroke:none"
   d="M 183.079,348.133 V 313.82 c -50.054,0 -90.776,-40.722 -90.776,-90.776 H 57.99 c 0,68.975 56.114,125.089 125.089,125.089 z"
   inkscape:connector-curvature="0" /><path
   id="XMLID_48_"
   style="fill:#ffffff;stroke:none"
   d="M 115.752,217.86 67.596,182.511 c -7.748,-5.688 -18.791,-1.781 -21.24,7.513 L 31.137,247.79 c -2.788,10.582 7.405,19.967 17.721,16.318 l 63.375,-22.417 c 10.317,-3.649 12.341,-17.356 3.519,-23.831 z"
   inkscape:connector-curvature="0" /><g
   id="XMLID_903_"
   style="fill:#ffffff;stroke:#000000">
			
		</g>
<g
   id="g24">
</g>
<g
   id="g26">
</g>
<g
   id="g28">
</g>
<g
   id="g30">
</g>
<g
   id="g32">
</g>
<g
   id="g34">
</g>
<g
   id="g36">
</g>
<g
   id="g38">
</g>
<g
   id="g40">
</g>
<g
   id="g42">
</g>
<g
   id="g44">
</g>
<g
   id="g46">
</g>
<g
   id="g48">
</g>
<g
   id="g50">
</g>
<g
   id="g52">
</g>
<rect
   height="37.932999"
   width="51.383999"
   style="fill:#ffffff;stroke:none"
   y="132.254"
   x="131.69499"
   id="rect905" /><path
   inkscape:connector-curvature="0"
   d="m 167.87298,330.111 h 15.206 v 36.045 c -2.491,0 -4.983,-1.067 -6.711,-3.2 l -15.206,-18.769 c -4.575,-5.648 -0.556,-14.076 6.711,-14.076 z"
   style="fill:#ffffff;stroke:none"
   id="path907" /><path
   inkscape:connector-curvature="0"
   d="m 183.07898,0 v 32.807 c -19.221,0 -34.858,15.637 -34.858,34.858 0,19.221 15.637,34.858 34.858,34.858 v 32.807 c -37.311,0 -67.665,-30.354 -67.665,-67.665 0,-37.311 30.355,-67.665 67.665,-67.665 z"
   style="fill:#ffffff;stroke:none"
   id="path909" /><rect
   height="227.589"
   width="16.403999"
   style="fill:#ffffff;stroke:none"
   y="102.522"
   x="-183.07899"
   id="rect911"
   transform="scale(-1,1)" /></svg>